<?xml version="1.0" encoding="UTF-8" standalone="no"?>
<svg xmlns:dc="http://purl.org/dc/elements/1.1/" xmlns:cc="http://creativecommons.org/ns#" xmlns:rdf="http://www.w3.org/1999/02/22-rdf-syntax-ns#" xmlns:svg="http://www.w3.org/2000/svg" xmlns="http://www.w3.org/2000/svg" preserveAspectRatio="xMidYMid meet" xml:space="preserve" y="0px" x="0px" viewBox="0 0 100 100" id="icons" version="1.1">
  <g style="fill:#fff;">
    <path d="m 12.83521,0 74.329575,0 c 7.05924,0 12.83516,5.775621 12.83516,12.835155 l 0,74.329678 C 99.999945,94.224379 94.224025,100 87.164785,100 L 12.83521,100 C 5.775876,100 5.5e-5,94.224379 5.5e-5,87.164833 l 0,-74.329678 C 5.5e-5,5.775621 5.775876,0 12.83521,0 l 0,0 z m 60.010549,11.110539 c -2.476282,0 -4.50192,2.02555 -4.50192,4.501927 l 0,10.775986 c 0,2.476383 2.025638,4.501921 4.50192,4.501921 l 11.302885,0 c 2.476081,0 4.501611,-2.025538 4.501611,-4.501921 l 0,-10.775986 c 0,-2.476377 -2.02553,-4.501927 -4.501611,-4.501927 l -11.302885,0 0,0 z m 15.851606,31.178544 -8.80179,0 c 0.832986,2.719568 1.282305,5.598765 1.282305,8.580172 0,16.633333 -13.916509,30.117143 -31.08273,30.117143 -17.166309,0 -31.082412,-13.48381 -31.082412,-30.117143 0,-2.981407 0.449325,-5.860604 1.282205,-8.580172 l -9.183948,0 0,42.241771 c 0,2.186298 1.788736,3.975028 3.975122,3.975028 l 69.636119,0 c 2.186399,0 3.975129,-1.78873 3.975129,-3.975028 l 0,-42.241771 0,0 z M 50.09515,30.323372 c -11.091792,0 -20.083701,8.712448 -20.083701,19.459669 0,10.747628 8.991909,19.460076 20.083701,19.460076 11.09211,0 20.083613,-8.712448 20.083613,-19.460076 0,-10.747221 -8.991503,-19.459669 -20.083613,-19.459669 z"/>
  </g>
</svg>
