<?xml version="1.0" encoding="UTF-8" standalone="no"?>
<svg xmlns:dc="http://purl.org/dc/elements/1.1/" xmlns:cc="http://creativecommons.org/ns#" xmlns:rdf="http://www.w3.org/1999/02/22-rdf-syntax-ns#" xmlns:svg="http://www.w3.org/2000/svg" xmlns="http://www.w3.org/2000/svg" preserveAspectRatio="xMidYMid meet" xml:space="preserve" y="0px" x="0px" viewBox="0 0 100 100" id="icons" version="1.1">
  <g style="fill:#fff;">
    <path class="icon" id="googleplus" d="m 47.857433,4.625411 c 0.830498,0.519061 1.753273,1.257281 2.785628,2.249265 0.980448,1.02082 1.960897,2.283868 2.906742,3.777611 0.905473,1.407232 1.712901,3.068227 2.422285,4.994521 0.576734,1.960897 0.865101,4.210162 0.865101,6.747794 -0.08074,4.729223 -1.118865,8.477997 -3.114366,11.303997 -0.980449,1.384162 -2.018571,2.641444 -3.114366,3.794913 -1.211143,1.153469 -2.503028,2.32424 -3.864122,3.51808 -0.790126,0.807429 -1.516812,1.730204 -2.180056,2.768326 -0.778592,1.061192 -1.170771,2.306938 -1.170771,3.708403 0,1.372628 0.403714,2.503028 1.211142,3.402734 0.692082,0.8478 1.384163,1.597554 2.018571,2.23773 l 4.47546,3.656497 c 2.768326,2.278101 5.190611,4.763827 7.284157,7.497549 1.960897,2.768325 2.999017,6.401753 3.073997,10.900282 0,6.372917 -2.826001,12.007613 -8.431861,16.927159 C 47.199955,97.202838 38.796933,99.82698 27.804373,100 18.611225,99.925025 11.742317,97.964127 7.203416,94.117308 2.635678,90.541554 0.340275,86.262184 0.340275,81.256128 c 0,-2.422285 0.749755,-5.132938 2.249265,-8.108888 1.441836,-2.987485 4.054443,-5.611627 7.843589,-7.872426 4.250534,-2.422285 8.720226,-4.037142 13.403311,-4.861872 4.625411,-0.674779 8.477997,-1.061192 11.53469,-1.153469 -0.945844,-1.239979 -1.787877,-2.572236 -2.537632,-3.979468 -0.865101,-1.384163 -1.286118,-3.039391 -1.286118,-4.959917 0,-1.153469 0.161486,-2.133918 0.490225,-2.906742 l 0.807428,-2.249265 c -1.49951,0.17302 -2.906742,0.253763 -4.221697,0.253763 C 21.627546,45.331334 16.298519,43.128208 12.630488,38.820001 8.783669,34.800162 6.863143,30.122844 6.863143,24.78805 c 0,-6.459427 2.710652,-12.29598 8.160793,-17.555799 C 18.755409,4.158256 22.636832,2.156987 26.673974,1.211143 30.653442,0.403714 34.379147,0 37.862623,0 l 26.270262,0 -8.108891,4.729223 -8.137724,0 z m 5.075264,75.609897 c 0,-3.327759 -1.095796,-6.228733 -3.25855,-8.708692 -2.306938,-2.347309 -5.899995,-5.230982 -10.796471,-8.651018 -0.836265,-0.08651 -1.816714,-0.126881 -2.941346,-0.126881 -0.674779,-0.08074 -2.393448,0 -5.150239,0.253763 -2.710652,0.386412 -5.502048,1.003518 -8.345349,1.857085 -0.669012,0.259531 -1.614857,0.645943 -2.825999,1.153469 -1.211143,0.559433 -2.439587,1.349559 -3.702636,2.376146 -1.211142,1.066959 -2.23773,2.393449 -3.068227,3.979469 -0.968914,1.660995 -1.441837,3.673799 -1.441837,6.021108 0,4.613876 2.076245,8.420324 6.269105,11.407809 3.979468,2.987485 9.458446,4.527366 16.321587,4.613876 6.228733,-0.08651 10.957956,-1.453371 14.187669,-4.094815 3.17204,-2.618375 4.786897,-5.969202 4.786897,-10.075552 z M 34.621375,41.744045 c 3.460408,-0.132649 6.34408,-1.372628 8.639484,-3.731472 1.113097,-1.67253 1.828248,-3.402734 2.145452,-5.132938 0.190322,-1.787877 0.288367,-3.229713 0.288367,-4.440855 0,-5.190611 -1.326489,-10.438895 -3.979468,-15.68718 -1.239979,-2.537631 -2.872138,-4.602341 -4.902243,-6.171059 -2.076245,-1.49951 -4.452391,-2.306938 -7.139974,-2.364612 -3.564219,0.05767 -6.5171,1.49951 -8.881712,4.279371 -1.989734,2.900974 -2.941346,6.153757 -2.854836,9.746813 0,4.752293 1.384163,9.68914 4.169791,14.822078 1.349559,2.404982 3.079763,4.440855 5.21368,6.113386 2.133918,1.67253 4.556203,2.503027 7.295692,2.503027 z m 65.03835,-27.510237 -13.78395,0 0,-13.783955 -6.67282,0 0,13.783955 -13.78396,0 0,6.690121 13.78396,0 0,13.783955 6.67282,0 0,-13.783955 13.78395,0 z"/>
  </g>
</svg>
